<svg width="298" height="384" viewBox="0 0 298 384" fill="none" xmlns="http://www.w3.org/2000/svg">
<path d="M8.64017 3C6.15477 4.51706 4.10085 6.6473 2.67545 9.18637C1.25004 11.7254 0.500956 14.5882 0.500031 17.5V20H2.50003V17.5C2.50408 14.193 3.59889 10.9797 5.61475 8.35818C7.6306 5.73664 10.4549 3.85326 13.6499 3H8.64017ZM254.18 0.5H17.5C12.993 0.505264 8.67199 2.29804 5.48502 5.48502C2.29804 8.67199 0.505295 12.9929 0.500031 17.5V366.5C0.506406 371.007 2.29953 375.327 5.48627 378.514C8.673 381.701 12.9933 383.494 17.5 383.5H280.5C285.007 383.494 289.327 381.701 292.514 378.514C295.701 375.327 297.494 371.007 297.5 366.5V39.18L254.18 0.5ZM295.5 366.5C295.495 370.477 293.913 374.289 291.101 377.101C288.289 379.913 284.477 381.495 280.5 381.5H17.5C13.5232 381.495 9.71074 379.913 6.89874 377.101C4.08675 374.289 2.50484 370.477 2.5 366.5L2.50003 17.5C2.50408 14.193 3.59889 10.9797 5.61475 8.35818C7.6306 5.73664 10.4549 3.85326 13.6499 3C14.9058 2.66537 16.2003 2.49726 17.5 2.5H253.42L295.5 40.07V366.5ZM8.64017 3C6.15477 4.51706 4.10085 6.6473 2.67545 9.18637C1.25004 11.7254 0.500956 14.5882 0.500031 17.5V20H2.50003V17.5C2.50408 14.193 3.59889 10.9797 5.61475 8.35818C7.6306 5.73664 10.4549 3.85326 13.6499 3H8.64017Z" fill="#F9FAFB"/>
<path d="M296.5 40.5H269.5C264.993 40.4949 260.672 38.7022 257.485 35.5152C254.298 32.3282 252.505 28.0071 252.5 23.5V1.5C252.5 1.23478 252.605 0.980444 252.793 0.792908C252.98 0.605371 253.235 0.5 253.5 0.5C253.765 0.5 254.02 0.605371 254.207 0.792908C254.395 0.980444 254.5 1.23478 254.5 1.5V23.5C254.504 27.4769 256.086 31.2896 258.898 34.1017C261.71 36.9137 265.523 38.4955 269.5 38.5H296.5C296.765 38.5 297.02 38.6054 297.207 38.7929C297.395 38.9804 297.5 39.2348 297.5 39.5C297.5 39.7652 297.395 40.0196 297.207 40.2071C297.02 40.3947 296.765 40.5 296.5 40.5Z" fill="#F9FAFB"/>
<path d="M263.041 107H35.0414C32.9196 107 30.8848 106.157 29.3845 104.657C27.8842 103.157 27.0414 101.122 27.0414 99C27.0414 96.8783 27.8842 94.8435 29.3845 93.3432C30.8848 91.8429 32.9196 91 35.0414 91H263.041C265.163 91 267.198 91.8429 268.698 93.3432C270.199 94.8435 271.041 96.8783 271.041 99C271.041 101.122 270.199 103.157 268.698 104.657C267.198 106.157 265.163 107 263.041 107Z" fill="#F9FAFB"/>
<path d="M148.041 73H35.0414C32.9196 73 30.8848 72.1572 29.3845 70.6569C27.8842 69.1566 27.0414 67.1217 27.0414 65C27.0414 62.8783 27.8842 60.8435 29.3845 59.3432C30.8848 57.8429 32.9196 57 35.0414 57H148.041C150.163 57 152.198 57.8429 153.698 59.3432C155.199 60.8435 156.041 62.8783 156.041 65C156.041 67.1217 155.199 69.1566 153.698 70.6569C152.198 72.1572 150.163 73 148.041 73Z" fill="#F9FAFB"/>
<path d="M263.041 174H35.0414C32.9196 174 30.8848 173.157 29.3845 171.657C27.8842 170.157 27.0414 168.122 27.0414 166C27.0414 163.878 27.8842 161.843 29.3845 160.343C30.8848 158.843 32.9196 158 35.0414 158H263.041C265.163 158 267.198 158.843 268.698 160.343C270.199 161.843 271.041 163.878 271.041 166C271.041 168.122 270.199 170.157 268.698 171.657C267.198 173.157 265.163 174 263.041 174Z" fill="#F9FAFB"/>
<path d="M148.041 140H35.0414C32.9196 140 30.8848 139.157 29.3845 137.657C27.8842 136.157 27.0414 134.122 27.0414 132C27.0414 129.878 27.8842 127.843 29.3845 126.343C30.8848 124.843 32.9196 124 35.0414 124H148.041C150.163 124 152.198 124.843 153.698 126.343C155.199 127.843 156.041 129.878 156.041 132C156.041 134.122 155.199 136.157 153.698 137.657C152.198 139.157 150.163 140 148.041 140Z" fill="#F9FAFB"/>
<path d="M254.959 327.5H42.9587C38.5842 327.495 34.3902 325.755 31.2969 322.662C28.2037 319.569 26.4637 315.375 26.4587 311V227C26.4637 222.625 28.2037 218.431 31.2969 215.338C34.3902 212.245 38.5842 210.505 42.9587 210.5H254.959C259.333 210.505 263.527 212.245 266.621 215.338C269.714 218.431 271.454 222.625 271.459 227V311C271.454 315.375 269.714 319.569 266.621 322.662C263.527 325.755 259.333 327.495 254.959 327.5Z" fill="#F9FAFB"/>
</svg>
